<svg width="319" height="105" xmlns="http://www.w3.org/2000/svg">
 <!-- Created with Method Draw - http://github.com/duopixel/Method-Draw/ -->

 <g>
  <title>background</title>
  <rect fill="#fff" id="canvas_background" height="107" width="321" y="-1" x="-1"/>
  <g display="none" overflow="visible" y="0" x="0" height="100%" width="100%" id="canvasGrid">
   <rect fill="url(#gridpattern)" stroke-width="0" y="0" x="0" height="100%" width="100%"/>
  </g>
 </g>
 <g>
  <title>Layer 1</title>
  <style type="text/css">.st0{fill:none;stroke:#F15A29;stroke-width:8;stroke-miterlimit:10;}
	.st1{fill:#5284B0;}
	.st2{fill:#F15D36;}</style>
  <g id="svg_29">
   <g transform="matrix(1.29286, 0, 0, 1.267, -19.0276, -23.102)" id="svg_16">
    <g id="svg_24">
     <g id="svg_27"/>
     <g id="svg_25">
      <rect height="75.3" width="240" class="st0" y="22.020032" x="17.700049" id="svg_26"/>
     </g>
    </g>
    <path d="m55.200073,69.720032c0,2.900024 -0.200073,5.700012 -0.700073,8.400024c-0.5,2.699951 -1.099976,5 -2,7.099976c-0.899902,2 -2,3.700012 -3.299927,4.799988c-1.300049,1.200012 -2.800049,1.799988 -4.5,1.799988c-0.300049,0 -0.599976,0 -0.900024,0c-0.300049,0 -0.5,-0.099976 -0.599976,-0.199951l-1.099976,-5.800049c0.099976,0.100037 0.299927,0.200012 0.5,0.200012c0.199951,0 0.5,0 0.699951,0c1.199951,0 2.099976,-0.5 2.800049,-1.599976c0.699951,-1.100037 1.199951,-2.400024 1.599976,-4.100037c0.400024,-1.599976 0.599976,-3.399963 0.699951,-5.299988c0.099976,-1.899963 0.099976,-3.700012 0.099976,-5.399963l0,-40l6.600098,0l0,40.099976l0.099976,0z" class="st1" id="svg_23"/>
    <path d="m79.600098,74.820007l-0.5,-3.799927l-0.200073,0c-1.099976,1.399963 -2.599976,2.5 -4.400024,3.299927c-1.899902,0.800049 -3.799927,1.200073 -5.699951,1.200073c-2.5,0 -4.5,-0.700073 -5.900024,-2.200073c-1.400024,-1.5 -2.199951,-3.399963 -2.199951,-5.799927c0,-1.600037 0.299927,-3.100037 1,-4.400024c0.699951,-1.300049 1.699951,-2.400024 3,-3.300049c1.299927,-0.899963 2.900024,-1.599976 4.699951,-2.099976c1.800049,-0.5 3.900024,-0.699951 6.200073,-0.699951l2.599976,0l0,-0.900024c0,-1.599976 -0.5,-2.700012 -1.5,-3.400024c-1,-0.699951 -2.700073,-1.099976 -4.900024,-1.099976c-3,0 -5.599976,0.699951 -7.900024,2l-1.299927,-5c2.699951,-1.599976 5.899902,-2.300049 9.699951,-2.300049c4,0 7,0.800049 9.099976,2.5c1,0.800049 1.700073,1.700073 2.400024,2.900024c0.599976,1.200012 0.900024,2.599976 0.900024,4.300049l0,18.799927l-5.099976,0zm-8.200073,-4.699951c1.300049,0 2.600098,-0.300049 3.800049,-0.900024c1.300049,-0.599976 2.300049,-1.400024 3.099976,-2.5l0,-5.5l-1.099976,0c-3.300049,0 -5.699951,0.400024 -7.199951,1.299988c-1.5,0.799988 -2.300049,2.200012 -2.300049,4c0,2.400024 1.199951,3.600037 3.699951,3.600037z" class="st1" id="svg_22"/>
    <path d="m108.099976,74.620056l-8,0l-11,-27.600037l6.900024,0l8.300049,22.100037l8.699951,-22.100037l6.5,0l-11.400024,27.600037z" class="st1" id="svg_21"/>
    <path d="m141.000122,74.920044l-0.5,-3.799988l-0.200073,0c-1.099976,1.400024 -2.5,2.5 -4.400024,3.299988c-1.799927,0.799988 -3.699951,1.299988 -5.699951,1.299988c-2.5,0 -4.5,-0.699951 -6,-2.099976c-1.5,-1.400024 -2.199951,-3.400024 -2.199951,-5.800049c0,-1.599976 0.299927,-3.099976 1,-4.399963c0.699951,-1.299988 1.699951,-2.399963 3,-3.299988c1.299927,-0.900024 2.899902,-1.599976 4.699951,-2.099976c1.800049,-0.5 3.900024,-0.800049 6.199951,-0.800049l2.600098,0l0,-0.900024c0,-1.599976 -0.5,-2.699951 -1.5,-3.399963c-1,-0.700012 -2.700073,-1 -4.900024,-1c-3,0 -5.599976,0.700012 -7.900024,2.100037l-1.300049,-5c2.700073,-1.600037 5.900024,-2.400024 9.700073,-2.5c4,-0.100037 7,0.699951 9.199951,2.299927c1,0.700073 1.800049,1.700073 2.400024,2.900024c0.599976,1.200012 1,2.599976 1,4.300049l0.199951,18.799927l-5.399902,0.100037zm-8.200073,-4.5c1.299927,0 2.599976,-0.299988 3.799927,-1c1.300049,-0.600037 2.300049,-1.5 3,-2.5l-0.099854,-5.5l-1.100098,0c-3.300049,0 -5.699951,0.5 -7.199951,1.299988c-1.5,0.900024 -2.199951,2.200012 -2.199951,4c0.099854,2.5 1.299927,3.700012 3.799927,3.700012z" class="st2" id="svg_20"/>
    <path d="m160.500122,46.820007l0,17.900024c0,1.599976 0.399902,2.900024 1.299927,3.799988c0.900024,0.900024 2,1.299988 3.299927,1.299988c1.400146,0 2.700073,-0.5 3.800049,-1.399963c1.199951,-0.900024 2,-2.299988 2.600098,-4.100037l0,-17.5l6.699951,0l0,27.600037l-5.199951,0l-0.400146,-3.799988l-0.199951,0c-0.399902,0.899963 -1,1.699951 -1.699951,2.299988c-0.699951,0.599976 -1.400024,1 -2.300049,1.399963c-0.800049,0.300049 -1.699951,0.600037 -2.5,0.700012c-0.899902,0.100037 -1.699951,0.200012 -2.599976,0.200012c-1.299927,0 -2.5,-0.200012 -3.700073,-0.5c-1.099854,-0.299988 -2.099854,-0.799988 -3,-1.599976c-0.899902,-0.700012 -1.5,-1.700012 -2,-2.900024c-0.5,-1.200012 -0.799927,-2.700012 -0.799927,-4.5l0,-18.799988l6.700073,0l0,-0.100037z" class="st1" id="svg_19"/>
    <path d="m187.700073,51.02002l-3.400024,0l0,-3.599976l3.900024,-0.600037l1.099976,-8.199951l5,0l0,8.299988l5.299927,0l0,4l-5.299927,0l0,15.799988c0,1.200012 0.099976,2 0.400024,2.400024c0.199951,0.399963 0.699951,0.599976 1.399902,0.599976c0.5,0 1,-0.099976 1.600098,-0.299988c0.5,-0.200012 1.300049,-0.600037 2.300049,-1.100037l1.099854,4.700012c-0.799927,0.600037 -1.799927,1.200012 -3.199951,1.5c-1.399902,0.400024 -2.800049,0.600037 -4.099976,0.600037c-1.200073,0 -2.200073,-0.200012 -3,-0.5c-0.799927,-0.300049 -1.400024,-0.800049 -1.799927,-1.400024c-0.400146,-0.599976 -0.700073,-1.400024 -0.900146,-2.299988c-0.199951,-0.900024 -0.199951,-1.900024 -0.199951,-2.900024l0,-17l-0.199951,0z" class="st1" id="svg_18"/>
    <path d="m218.700073,46.52002c2.399902,0 4.5,0.399963 6.299927,1.200012c1.800049,0.799988 3.200073,1.900024 4.300049,3.299988c1.099976,1.399963 2,3 2.5,4.700012c0.5,1.799988 0.799927,3.699951 0.799927,5.599976c0,2 -0.299927,3.800049 -0.799927,5.599976c-0.5,1.700073 -1.400024,3.300049 -2.5,4.600037c-1.099976,1.299988 -2.599976,2.299988 -4.300049,3.100037s-3.799927,1.099976 -6.099976,1.099976c-2.400024,0 -4.5,-0.400024 -6.300049,-1.200012s-3.199951,-1.899963 -4.399902,-3.200012c-1.200073,-1.299988 -2,-2.900024 -2.600098,-4.599976c-0.599976,-1.800049 -0.799927,-3.599976 -0.799927,-5.599976c0,-2 0.299927,-3.800049 0.799927,-5.600037c0.600098,-1.799988 1.400024,-3.299988 2.600098,-4.600037c1.099976,-1.299927 2.599976,-2.399963 4.299927,-3.199951c1.800049,-0.900024 3.800049,-1.200012 6.200073,-1.200012zm0.099976,24.200012c1.200073,0 2.200073,-0.200012 3,-0.799988c0.900024,-0.5 1.599976,-1.200012 2.099976,-2c0.600098,-0.900024 1,-1.900024 1.199951,-3c0.300049,-1.100037 0.400146,-2.299988 0.400146,-3.5c0,-1.299988 -0.100098,-2.5 -0.400146,-3.700012c-0.299927,-1.200012 -0.699951,-2.200012 -1.299927,-3.099976c-0.599976,-0.900024 -1.299927,-1.600037 -2.200073,-2.200012c-0.899902,-0.5 -1.899902,-0.799988 -3.199951,-0.799988c-1.199951,0 -2.199951,0.299988 -3,0.799988c-0.800049,0.5 -1.5,1.200012 -2.099976,2s-0.900024,1.799988 -1.200073,2.899963c-0.299927,1.100037 -0.399902,2.300049 -0.399902,3.5c0,1.300049 0.099976,2.5 0.399902,3.700012c0.300049,1.200012 0.700073,2.200012 1.300049,3.200012c0.600098,0.900024 1.300049,1.599976 2.199951,2.200012s2,0.799988 3.200073,0.799988z" class="st1" id="svg_17"/>
   </g>
  </g>
 </g>
</svg>